<?xml version="1.0" encoding="utf-8" standalone="no"?>
<!DOCTYPE svg PUBLIC "-//W3C//DTD SVG 1.1//EN"
  "http://www.w3.org/Graphics/SVG/1.1/DTD/svg11.dtd">
<svg xmlns:xlink="http://www.w3.org/1999/xlink" width="404.220625pt" height="64.48pt" viewBox="0 0 404.220625 64.48" xmlns="http://www.w3.org/2000/svg" version="1.1">
 <metadata>
  <rdf:RDF xmlns:dc="http://purl.org/dc/elements/1.1/" xmlns:cc="http://creativecommons.org/ns#" xmlns:rdf="http://www.w3.org/1999/02/22-rdf-syntax-ns#">
   <cc:Work>
    <dc:type rdf:resource="http://purl.org/dc/dcmitype/StillImage"/>
    <dc:date>2025-05-22T13:40:56.916463</dc:date>
    <dc:format>image/svg+xml</dc:format>
    <dc:creator>
     <cc:Agent>
      <dc:title>Matplotlib v3.9.2, https://matplotlib.org/</dc:title>
     </cc:Agent>
    </dc:creator>
   </cc:Work>
  </rdf:RDF>
 </metadata>
 <defs>
  <style type="text/css">*{stroke-linejoin: round; stroke-linecap: butt}</style>
 </defs>
 <g id="figure_1">
  <g id="patch_1">
   <path d="M 0 64.48 
L 404.220625 64.48 
L 404.220625 -0 
L 0 -0 
z
" style="fill: #ffffff"/>
  </g>
  <g id="axes_1">
   <g id="line2d_1">
    <path d="M 9.92 32.221264 
L 15.141053 27.114578 
L 20.362105 22.491859 
L 25.583158 18.381904 
L 30.804211 14.810317 
L 36.025263 11.799345 
L 41.246316 9.367747 
L 46.467368 7.530669 
L 51.688421 6.299555 
L 56.909474 5.682075 
L 62.130526 5.682075 
L 67.351579 6.299555 
L 72.572632 7.530669 
L 77.793684 9.367747 
L 83.014737 11.799345 
L 88.235789 14.810317 
L 93.456842 18.381904 
L 98.677895 22.491859 
L 103.898947 27.114578 
L 109.12 32.221264 
" clip-path="url(#p511f20a30b)" style="fill: none; stroke: #000000; stroke-width: 5; stroke-linecap: square"/>
   </g>
   <g id="line2d_2">
    <path d="M 9.92 32.258736 
L 15.141053 37.365422 
L 20.362105 41.988141 
L 25.583158 46.098096 
L 30.804211 49.669683 
L 36.025263 52.680655 
L 41.246316 55.112253 
L 46.467368 56.949331 
L 51.688421 58.180445 
L 56.909474 58.797925 
L 62.130526 58.797925 
L 67.351579 58.180445 
L 72.572632 56.949331 
L 77.793684 55.112253 
L 83.014737 52.680655 
L 88.235789 49.669683 
L 93.456842 46.098096 
L 98.677895 41.988141 
L 103.898947 37.365422 
L 109.12 32.258736 
" clip-path="url(#p511f20a30b)" style="fill: none; stroke: #000000; stroke-width: 5; stroke-linecap: square"/>
   </g>
   <g id="patch_2">
    <path d="M 4.96 42.16 
L 114.08 42.16 
L 114.08 22.32 
L 4.96 22.32 
z
" clip-path="url(#p511f20a30b)" style="fill: #ffffff; stroke: #ffffff; stroke-linejoin: miter"/>
   </g>
   <g id="patch_3">
    <path d="M 59.52 55.056 
C 65.570874 55.056 71.374734 52.651962 75.653348 48.373348 
C 79.931962 44.094734 82.336 38.290874 82.336 32.24 
C 82.336 26.189126 79.931962 20.385266 75.653348 16.106652 
C 71.374734 11.828038 65.570874 9.424 59.52 9.424 
C 53.469126 9.424 47.665266 11.828038 43.386652 16.106652 
C 39.108038 20.385266 36.704 26.189126 36.704 32.24 
C 36.704 38.290874 39.108038 44.094734 43.386652 48.373348 
C 47.665266 52.651962 53.469126 55.056 59.52 55.056 
z
" clip-path="url(#p511f20a30b)" style="stroke: #000000; stroke-linejoin: miter"/>
   </g>
   <g id="text_1">
    <!-- light -->
    <g transform="translate(116.56 49.105937) scale(0.62 -0.62)">
     <defs>
      <path id="DejaVuSans-Bold-6c" d="M 538 4863 
L 1656 4863 
L 1656 0 
L 538 0 
L 538 4863 
z
" transform="scale(0.015625)"/>
      <path id="DejaVuSans-Bold-69" d="M 538 3500 
L 1656 3500 
L 1656 0 
L 538 0 
L 538 3500 
z
M 538 4863 
L 1656 4863 
L 1656 3950 
L 538 3950 
L 538 4863 
z
" transform="scale(0.015625)"/>
      <path id="DejaVuSans-Bold-67" d="M 2919 594 
Q 2688 288 2409 144 
Q 2131 0 1766 0 
Q 1125 0 706 504 
Q 288 1009 288 1791 
Q 288 2575 706 3076 
Q 1125 3578 1766 3578 
Q 2131 3578 2409 3434 
Q 2688 3291 2919 2981 
L 2919 3500 
L 4044 3500 
L 4044 353 
Q 4044 -491 3511 -936 
Q 2978 -1381 1966 -1381 
Q 1638 -1381 1331 -1331 
Q 1025 -1281 716 -1178 
L 716 -306 
Q 1009 -475 1290 -558 
Q 1572 -641 1856 -641 
Q 2406 -641 2662 -400 
Q 2919 -159 2919 353 
L 2919 594 
z
M 2181 2772 
Q 1834 2772 1640 2515 
Q 1447 2259 1447 1791 
Q 1447 1309 1634 1061 
Q 1822 813 2181 813 
Q 2531 813 2725 1069 
Q 2919 1325 2919 1791 
Q 2919 2259 2725 2515 
Q 2531 2772 2181 2772 
z
" transform="scale(0.015625)"/>
      <path id="DejaVuSans-Bold-68" d="M 4056 2131 
L 4056 0 
L 2931 0 
L 2931 347 
L 2931 1625 
Q 2931 2084 2911 2256 
Q 2891 2428 2841 2509 
Q 2775 2619 2662 2680 
Q 2550 2741 2406 2741 
Q 2056 2741 1856 2470 
Q 1656 2200 1656 1722 
L 1656 0 
L 538 0 
L 538 4863 
L 1656 4863 
L 1656 2988 
Q 1909 3294 2193 3439 
Q 2478 3584 2822 3584 
Q 3428 3584 3742 3212 
Q 4056 2841 4056 2131 
z
" transform="scale(0.015625)"/>
      <path id="DejaVuSans-Bold-74" d="M 1759 4494 
L 1759 3500 
L 2913 3500 
L 2913 2700 
L 1759 2700 
L 1759 1216 
Q 1759 972 1856 886 
Q 1953 800 2241 800 
L 2816 800 
L 2816 0 
L 1856 0 
Q 1194 0 917 276 
Q 641 553 641 1216 
L 641 2700 
L 84 2700 
L 84 3500 
L 641 3500 
L 641 4494 
L 1759 4494 
z
" transform="scale(0.015625)"/>
     </defs>
     <use xlink:href="#DejaVuSans-Bold-6c"/>
     <use xlink:href="#DejaVuSans-Bold-69" x="34.277344"/>
     <use xlink:href="#DejaVuSans-Bold-67" x="68.554688"/>
     <use xlink:href="#DejaVuSans-Bold-68" x="140.136719"/>
     <use xlink:href="#DejaVuSans-Bold-74" x="211.328125"/>
    </g>
   </g>
   <g id="text_2">
    <!-- lighteye -->
    <g style="fill: #b22222" transform="translate(119.04 49.105937) scale(0.62 -0.62)">
     <defs>
      <path id="DejaVuSans-Bold-65" d="M 4031 1759 
L 4031 1441 
L 1416 1441 
Q 1456 1047 1700 850 
Q 1944 653 2381 653 
Q 2734 653 3104 758 
Q 3475 863 3866 1075 
L 3866 213 
Q 3469 63 3072 -14 
Q 2675 -91 2278 -91 
Q 1328 -91 801 392 
Q 275 875 275 1747 
Q 275 2603 792 3093 
Q 1309 3584 2216 3584 
Q 3041 3584 3536 3087 
Q 4031 2591 4031 1759 
z
M 2881 2131 
Q 2881 2450 2695 2645 
Q 2509 2841 2209 2841 
Q 1884 2841 1681 2658 
Q 1478 2475 1428 2131 
L 2881 2131 
z
" transform="scale(0.015625)"/>
      <path id="DejaVuSans-Bold-79" d="M 78 3500 
L 1197 3500 
L 2138 1125 
L 2938 3500 
L 4056 3500 
L 2584 -331 
Q 2363 -916 2067 -1148 
Q 1772 -1381 1288 -1381 
L 641 -1381 
L 641 -647 
L 991 -647 
Q 1275 -647 1404 -556 
Q 1534 -466 1606 -231 
L 1638 -134 
L 78 3500 
z
" transform="scale(0.015625)"/>
     </defs>
     <use xlink:href="#DejaVuSans-Bold-6c"/>
     <use xlink:href="#DejaVuSans-Bold-69" x="34.277344"/>
     <use xlink:href="#DejaVuSans-Bold-67" x="68.554688"/>
     <use xlink:href="#DejaVuSans-Bold-68" x="140.136719"/>
     <use xlink:href="#DejaVuSans-Bold-74" x="211.328125"/>
     <use xlink:href="#DejaVuSans-Bold-65" x="259.130859"/>
     <use xlink:href="#DejaVuSans-Bold-79" x="326.953125"/>
     <use xlink:href="#DejaVuSans-Bold-65" x="392.138672"/>
    </g>
   </g>
   <g id="text_3">
    <!-- eye -->
    <g transform="translate(243.04 48.86375) scale(0.62 -0.62)">
     <use xlink:href="#DejaVuSans-Bold-65"/>
     <use xlink:href="#DejaVuSans-Bold-79" x="67.822266"/>
     <use xlink:href="#DejaVuSans-Bold-65" x="133.007812"/>
    </g>
   </g>
   <g id="line2d_3">
    <path d="M 37.696 32.056704 
L 38.136889 31.954546 
L 38.577778 31.842402 
L 39.018667 31.737197 
L 39.459556 31.661411 
L 39.900444 31.640877 
L 40.341333 31.701483 
L 40.782222 31.865096 
L 41.223111 32.145189 
L 41.664 32.54277 
L 42.104889 33.043265 
L 42.545778 33.614932 
L 42.986667 34.209302 
L 43.427556 34.763878 
L 43.868444 35.207105 
L 44.309333 35.465292 
L 44.750222 35.470912 
L 45.191111 35.171433 
L 45.632 34.537698 
L 46.072889 33.570802 
L 46.513778 32.306479 
L 46.954667 30.816212 
L 47.395556 29.204571 
L 47.836444 27.602664 
L 48.277333 26.158029 
L 48.718222 25.021708 
L 49.159111 24.333622 
L 49.6 24.207644 
L 50.040889 24.717913 
L 50.481778 25.887916 
L 50.922667 27.683664 
L 51.363556 30.011985 
L 51.804444 32.724441 
L 52.245333 35.626882 
L 52.686222 38.49402 
L 53.127111 41.087891 
L 53.568 43.178614 
L 54.008889 44.565549 
L 54.449778 45.09681 
L 54.890667 44.685193 
L 55.331556 43.318849 
L 55.772444 41.065455 
L 56.213333 38.069298 
L 56.654222 34.541284 
L 57.095111 30.742632 
L 57.536 26.963607 
L 57.976889 23.499171 
L 58.417778 20.623756 
L 58.858667 18.567475 
L 59.299556 17.496003 
L 59.740444 17.496003 
L 60.181333 18.567475 
L 60.622222 20.623756 
L 61.063111 23.499171 
L 61.504 26.963607 
L 61.944889 30.742632 
L 62.385778 34.541284 
L 62.826667 38.069298 
L 63.267556 41.065455 
L 63.708444 43.318849 
L 64.149333 44.685193 
L 64.590222 45.09681 
L 65.031111 44.565549 
L 65.472 43.178614 
L 65.912889 41.087891 
L 66.353778 38.49402 
L 66.794667 35.626882 
L 67.235556 32.724441 
L 67.676444 30.011985 
L 68.117333 27.683664 
L 68.558222 25.887916 
L 68.999111 24.717913 
L 69.44 24.207644 
L 69.880889 24.333622 
L 70.321778 25.021708 
L 70.762667 26.158029 
L 71.203556 27.602664 
L 71.644444 29.204571 
L 72.085333 30.816212 
L 72.526222 32.306479 
L 72.967111 33.570802 
L 73.408 34.537698 
L 73.848889 35.171433 
L 74.289778 35.470912 
L 74.730667 35.465292 
L 75.171556 35.207105 
L 75.612444 34.763878 
L 76.053333 34.209302 
L 76.494222 33.614932 
L 76.935111 33.043265 
L 77.376 32.54277 
L 77.816889 32.145189 
L 78.257778 31.865096 
L 78.698667 31.701483 
L 79.139556 31.640877 
L 79.580444 31.661411 
L 80.021333 31.737197 
L 80.462222 31.842402 
L 80.903111 31.954546 
L 81.344 32.056704 
" clip-path="url(#p511f20a30b)" style="fill: none; stroke: #b22222; stroke-width: 2.5; stroke-linecap: square"/>
   </g>
  </g>
 </g>
 <defs>
  <clipPath id="p511f20a30b">
   <rect x="0" y="0" width="357.12" height="64.48"/>
  </clipPath>
 </defs>
</svg>
