<?xml version="1.0" encoding="utf-8" standalone="no"?>
<!DOCTYPE svg PUBLIC "-//W3C//DTD SVG 1.1//EN"
  "http://www.w3.org/Graphics/SVG/1.1/DTD/svg11.dtd">
<svg xmlns:xlink="http://www.w3.org/1999/xlink" width="357.12pt" height="193.44pt" viewBox="0 0 357.12 193.44" xmlns="http://www.w3.org/2000/svg" version="1.1">
 <metadata>
  <rdf:RDF xmlns:dc="http://purl.org/dc/elements/1.1/" xmlns:cc="http://creativecommons.org/ns#" xmlns:rdf="http://www.w3.org/1999/02/22-rdf-syntax-ns#">
   <cc:Work>
    <dc:type rdf:resource="http://purl.org/dc/dcmitype/StillImage"/>
    <dc:date>2025-05-22T22:48:10.882910</dc:date>
    <dc:format>image/svg+xml</dc:format>
    <dc:creator>
     <cc:Agent>
      <dc:title>Matplotlib v3.10.3, https://matplotlib.org/</dc:title>
     </cc:Agent>
    </dc:creator>
   </cc:Work>
  </rdf:RDF>
 </metadata>
 <defs>
  <style type="text/css">*{stroke-linejoin: round; stroke-linecap: butt}</style>
 </defs>
 <g id="figure_1">
  <g id="patch_1">
   <path d="M 0 193.44 
L 357.12 193.44 
L 357.12 0 
L 0 0 
L 0 193.44 
z
" style="fill: none"/>
  </g>
  <g id="axes_1">
   <g id="line2d_1">
    <path d="M 29.76 96.663793 
L 45.423158 81.343733 
L 61.086316 67.475576 
L 76.749474 55.145713 
L 92.412632 44.43095 
L 108.075789 35.398036 
L 123.738947 28.103241 
L 139.402105 22.592007 
L 155.065263 18.898666 
L 170.728421 17.046226 
L 186.391579 17.046226 
L 202.054737 18.898666 
L 217.717895 22.592007 
L 233.381053 28.103241 
L 249.044211 35.398036 
L 264.707368 44.43095 
L 280.370526 55.145713 
L 296.033684 67.475576 
L 311.696842 81.343733 
L 327.36 96.663793 
" clip-path="url(#p87ba373230)" style="fill: none; stroke: #ffffff; stroke-width: 7; stroke-linecap: square"/>
    <path d="M 29.76 96.663793 
L 45.423158 81.343733 
L 61.086316 67.475576 
L 76.749474 55.145713 
L 92.412632 44.43095 
L 108.075789 35.398036 
L 123.738947 28.103241 
L 139.402105 22.592007 
L 155.065263 18.898666 
L 170.728421 17.046226 
L 186.391579 17.046226 
L 202.054737 18.898666 
L 217.717895 22.592007 
L 233.381053 28.103241 
L 249.044211 35.398036 
L 264.707368 44.43095 
L 280.370526 55.145713 
L 296.033684 67.475576 
L 311.696842 81.343733 
L 327.36 96.663793 
" clip-path="url(#p87ba373230)" style="fill: none; stroke: #000000; stroke-width: 5; stroke-linecap: square"/>
   </g>
   <g id="line2d_2">
    <path d="M 44.64 111.363989 
L 58.736842 123.980261 
L 72.833684 135.360405 
L 86.930526 145.446994 
L 101.027368 154.189126 
L 115.124211 161.542686 
L 129.221053 167.470565 
L 143.317895 171.942849 
L 157.414737 174.936969 
L 171.511579 176.437816 
L 185.608421 176.437816 
L 199.705263 174.936969 
L 213.802105 171.942849 
L 227.898947 167.470565 
L 241.995789 161.542686 
L 256.092632 154.189126 
L 270.189474 145.446994 
L 284.286316 135.360405 
L 298.383158 123.980261 
L 312.48 111.363989 
" clip-path="url(#p87ba373230)" style="fill: none; stroke: #ffffff; stroke-width: 7; stroke-linecap: square"/>
    <path d="M 44.64 111.363989 
L 58.736842 123.980261 
L 72.833684 135.360405 
L 86.930526 145.446994 
L 101.027368 154.189126 
L 115.124211 161.542686 
L 129.221053 167.470565 
L 143.317895 171.942849 
L 157.414737 174.936969 
L 171.511579 176.437816 
L 185.608421 176.437816 
L 199.705263 174.936969 
L 213.802105 171.942849 
L 227.898947 167.470565 
L 241.995789 161.542686 
L 256.092632 154.189126 
L 270.189474 145.446994 
L 284.286316 135.360405 
L 298.383158 123.980261 
L 312.48 111.363989 
" clip-path="url(#p87ba373230)" style="fill: none; stroke: #000000; stroke-width: 5; stroke-linecap: square"/>
   </g>
   <g id="patch_2">
    <path d="M 178.56 165.168 
C 196.712622 165.168 214.124203 157.955887 226.960045 145.120045 
C 239.795887 132.284203 247.008 114.872622 247.008 96.72 
C 247.008 78.567378 239.795887 61.155797 226.960045 48.319955 
C 214.124203 35.484113 196.712622 28.272 178.56 28.272 
C 160.407378 28.272 142.995797 35.484113 130.159955 48.319955 
C 117.324113 61.155797 110.112 78.567378 110.112 96.72 
C 110.112 114.872622 117.324113 132.284203 130.159955 145.120045 
C 142.995797 157.955887 160.407378 165.168 178.56 165.168 
L 178.56 165.168 
z
" clip-path="url(#p87ba373230)" style="fill: none; stroke: #ffffff; stroke-width: 7; stroke-linejoin: miter"/>
    <path d="M 178.56 165.168 
C 196.712622 165.168 214.124203 157.955887 226.960045 145.120045 
C 239.795887 132.284203 247.008 114.872622 247.008 96.72 
C 247.008 78.567378 239.795887 61.155797 226.960045 48.319955 
C 214.124203 35.484113 196.712622 28.272 178.56 28.272 
C 160.407378 28.272 142.995797 35.484113 130.159955 48.319955 
C 117.324113 61.155797 110.112 78.567378 110.112 96.72 
C 110.112 114.872622 117.324113 132.284203 130.159955 145.120045 
C 142.995797 157.955887 160.407378 165.168 178.56 165.168 
L 178.56 165.168 
z
" clip-path="url(#p87ba373230)" style="fill: none; stroke: #000000; stroke-linejoin: miter"/>
   </g>
   <g id="line2d_3">
    <path d="M 113.088 96.170113 
L 114.410667 95.863639 
L 115.733333 95.527207 
L 117.056 95.211592 
L 118.378667 94.984233 
L 119.701333 94.92263 
L 121.024 95.104448 
L 122.346667 95.595288 
L 123.669333 96.435566 
L 124.992 97.628311 
L 126.314667 99.129795 
L 127.637333 100.844797 
L 128.96 102.627907 
L 130.282667 104.291635 
L 131.605333 105.621314 
L 132.928 106.395876 
L 134.250667 106.412736 
L 135.573333 105.514299 
L 136.896 103.613095 
L 138.218667 100.712406 
L 139.541333 96.919436 
L 140.864 92.448636 
L 142.186667 87.613713 
L 143.509333 82.807991 
L 144.832 78.474086 
L 146.154667 75.065125 
L 147.477333 73.000867 
L 148.8 72.622932 
L 150.122667 74.15374 
L 151.445333 77.663747 
L 152.768 83.050993 
L 154.090667 90.035954 
L 155.413333 98.173322 
L 156.736 106.880647 
L 158.058667 115.482061 
L 159.381333 123.263673 
L 160.704 129.535843 
L 162.026667 133.696648 
L 163.349333 135.290429 
L 164.672 134.05558 
L 165.994667 129.956546 
L 167.317333 123.196365 
L 168.64 114.207894 
L 169.962667 103.623853 
L 171.285333 92.227897 
L 172.608 80.890821 
L 173.930667 70.497514 
L 175.253333 61.871267 
L 176.576 55.702424 
L 177.898667 52.48801 
L 179.221333 52.48801 
L 180.544 55.702424 
L 181.866667 61.871267 
L 183.189333 70.497514 
L 184.512 80.890821 
L 185.834667 92.227897 
L 187.157333 103.623853 
L 188.48 114.207894 
L 189.802667 123.196365 
L 191.125333 129.956546 
L 192.448 134.05558 
L 193.770667 135.290429 
L 195.093333 133.696648 
L 196.416 129.535843 
L 197.738667 123.263673 
L 199.061333 115.482061 
L 200.384 106.880647 
L 201.706667 98.173322 
L 203.029333 90.035954 
L 204.352 83.050993 
L 205.674667 77.663747 
L 206.997333 74.15374 
L 208.32 72.622932 
L 209.642667 73.000867 
L 210.965333 75.065125 
L 212.288 78.474086 
L 213.610667 82.807991 
L 214.933333 87.613713 
L 216.256 92.448636 
L 217.578667 96.919436 
L 218.901333 100.712406 
L 220.224 103.613095 
L 221.546667 105.514299 
L 222.869333 106.412736 
L 224.192 106.395876 
L 225.514667 105.621314 
L 226.837333 104.291635 
L 228.16 102.627907 
L 229.482667 100.844797 
L 230.805333 99.129795 
L 232.128 97.628311 
L 233.450667 96.435566 
L 234.773333 95.595288 
L 236.096 95.104448 
L 237.418667 94.92263 
L 238.741333 94.984233 
L 240.064 95.211592 
L 241.386667 95.527207 
L 242.709333 95.863639 
L 244.032 96.170113 
" clip-path="url(#p87ba373230)" style="fill: none; stroke: #ffffff; stroke-width: 2.5; stroke-linecap: square"/>
   </g>
  </g>
 </g>
 <defs>
  <clipPath id="p87ba373230">
   <rect x="0" y="0" width="357.12" height="193.44"/>
  </clipPath>
 </defs>
</svg>
