<?xml version="1.0" encoding="utf-8" standalone="no"?>
<!DOCTYPE svg PUBLIC "-//W3C//DTD SVG 1.1//EN"
  "http://www.w3.org/Graphics/SVG/1.1/DTD/svg11.dtd">
<svg xmlns:xlink="http://www.w3.org/1999/xlink" width="357.12pt" height="64.48pt" viewBox="0 0 357.12 64.48" xmlns="http://www.w3.org/2000/svg" version="1.1">
 <metadata>
  <rdf:RDF xmlns:dc="http://purl.org/dc/elements/1.1/" xmlns:cc="http://creativecommons.org/ns#" xmlns:rdf="http://www.w3.org/1999/02/22-rdf-syntax-ns#">
   <cc:Work>
    <dc:type rdf:resource="http://purl.org/dc/dcmitype/StillImage"/>
    <dc:date>2025-05-22T01:03:19.518336</dc:date>
    <dc:format>image/svg+xml</dc:format>
    <dc:creator>
     <cc:Agent>
      <dc:title>Matplotlib v3.10.3, https://matplotlib.org/</dc:title>
     </cc:Agent>
    </dc:creator>
   </cc:Work>
  </rdf:RDF>
 </metadata>
 <defs>
  <style type="text/css">*{stroke-linejoin: round; stroke-linecap: butt}</style>
 </defs>
 <g id="figure_1">
  <g id="patch_1">
   <path d="M 0 64.48 
L 357.12 64.48 
L 357.12 -0 
L 0 -0 
z
" style="fill: #ffffff"/>
  </g>
  <g id="axes_1">
   <g id="line2d_1">
    <path d="M 9.92 32.221264 
L 15.141053 27.114578 
L 20.362105 22.491859 
L 25.583158 18.381904 
L 30.804211 14.810317 
L 36.025263 11.799345 
L 41.246316 9.367747 
L 46.467368 7.530669 
L 51.688421 6.299555 
L 56.909474 5.682075 
L 62.130526 5.682075 
L 67.351579 6.299555 
L 72.572632 7.530669 
L 77.793684 9.367747 
L 83.014737 11.799345 
L 88.235789 14.810317 
L 93.456842 18.381904 
L 98.677895 22.491859 
L 103.898947 27.114578 
L 109.12 32.221264 
" clip-path="url(#p7cf3aa464d)" style="fill: none; stroke: #000000; stroke-width: 5; stroke-linecap: square"/>
   </g>
   <g id="line2d_2">
    <path d="M 9.92 32.258736 
L 15.141053 37.365422 
L 20.362105 41.988141 
L 25.583158 46.098096 
L 30.804211 49.669683 
L 36.025263 52.680655 
L 41.246316 55.112253 
L 46.467368 56.949331 
L 51.688421 58.180445 
L 56.909474 58.797925 
L 62.130526 58.797925 
L 67.351579 58.180445 
L 72.572632 56.949331 
L 77.793684 55.112253 
L 83.014737 52.680655 
L 88.235789 49.669683 
L 93.456842 46.098096 
L 98.677895 41.988141 
L 103.898947 37.365422 
L 109.12 32.258736 
" clip-path="url(#p7cf3aa464d)" style="fill: none; stroke: #000000; stroke-width: 5; stroke-linecap: square"/>
   </g>
   <g id="patch_2">
    <path d="M 4.96 42.16 
L 114.08 42.16 
L 114.08 22.32 
L 4.96 22.32 
z
" clip-path="url(#p7cf3aa464d)" style="fill: #ffffff; stroke: #ffffff; stroke-linejoin: miter"/>
   </g>
   <g id="patch_3">
    <path d="M 59.52 55.056 
C 65.570874 55.056 71.374734 52.651962 75.653348 48.373348 
C 79.931962 44.094734 82.336 38.290874 82.336 32.24 
C 82.336 26.189126 79.931962 20.385266 75.653348 16.106652 
C 71.374734 11.828038 65.570874 9.424 59.52 9.424 
C 53.469126 9.424 47.665266 11.828038 43.386652 16.106652 
C 39.108038 20.385266 36.704 26.189126 36.704 32.24 
C 36.704 38.290874 39.108038 44.094734 43.386652 48.373348 
C 47.665266 52.651962 53.469126 55.056 59.52 55.056 
z
" clip-path="url(#p7cf3aa464d)" style="stroke: #000000; stroke-linejoin: miter"/>
   </g>
   <g id="text_1">
    <!-- light -->
    <g transform="translate(116.56 48.316406) scale(0.62 -0.62)">
     <defs>
      <path id="Anta-Regular-6c" d="M 375 4444 
L 1034 4444 
L 1034 0 
L 375 0 
L 375 4444 
z
" transform="scale(0.015625)"/>
      <path id="Anta-Regular-69" d="M 300 4119 
Q 300 4288 419 4406 
Q 538 4525 706 4525 
Q 875 4525 994 4406 
Q 1113 4288 1113 4119 
Q 1113 3950 994 3831 
Q 875 3713 706 3713 
Q 538 3713 419 3831 
Q 300 3950 300 4119 
z
M 375 3238 
L 1038 3238 
L 1038 0 
L 375 0 
L 375 3238 
z
" transform="scale(0.015625)"/>
      <path id="Anta-Regular-67" d="M 344 2075 
Q 344 2397 501 2659 
Q 659 2922 925 3080 
Q 1191 3238 1513 3238 
L 2659 3238 
Q 2931 3238 3125 3044 
Q 3319 2850 3319 2578 
L 3319 -38 
Q 3319 -359 3161 -625 
Q 3003 -891 2737 -1048 
Q 2472 -1206 2150 -1206 
L 553 -1206 
L 553 -547 
L 2141 -547 
Q 2356 -547 2507 -398 
Q 2659 -250 2659 -41 
L 2659 2578 
L 1513 2578 
Q 1303 2578 1153 2429 
Q 1003 2281 1003 2069 
L 1003 1172 
Q 1003 963 1153 811 
Q 1303 659 1513 659 
L 2284 659 
L 2284 0 
L 1513 0 
Q 1191 0 925 158 
Q 659 316 501 580 
Q 344 844 344 1166 
L 344 2075 
z
" transform="scale(0.015625)"/>
      <path id="Anta-Regular-68" d="M 375 4444 
L 1034 4444 
L 1034 3238 
L 2053 3238 
Q 2391 3238 2667 3080 
Q 2944 2922 3108 2658 
Q 3272 2394 3272 2072 
L 3272 0 
L 2613 0 
L 2613 2063 
Q 2613 2269 2445 2423 
Q 2278 2578 2053 2578 
L 1034 2578 
L 1034 0 
L 375 0 
L 375 4444 
z
" transform="scale(0.015625)"/>
      <path id="Anta-Regular-74" d="M 219 3238 
L 641 3238 
L 641 4444 
L 1300 4444 
L 1300 3238 
L 2297 3238 
L 2297 2578 
L 1300 2578 
L 1300 919 
Q 1300 813 1383 736 
Q 1466 659 1581 659 
L 2297 659 
L 2297 0 
L 1572 0 
Q 1316 0 1105 123 
Q 894 247 767 455 
Q 641 663 641 916 
L 641 2578 
L 219 2578 
L 219 3238 
z
" transform="scale(0.015625)"/>
     </defs>
     <use xlink:href="#Anta-Regular-6c"/>
     <use xlink:href="#Anta-Regular-69" transform="translate(22.021484 0)"/>
     <use xlink:href="#Anta-Regular-67" transform="translate(44.091797 0)"/>
     <use xlink:href="#Anta-Regular-68" transform="translate(101.806641 0)"/>
     <use xlink:href="#Anta-Regular-74" transform="translate(158.789062 0)"/>
    </g>
   </g>
   <g id="text_2">
    <!-- lighteye -->
    <g style="fill: #b22222" transform="translate(119.04 48.253437) scale(0.62 -0.62)">
     <defs>
      <path id="Anta-Regular-65" d="M 375 2569 
Q 375 2847 578 3042 
Q 781 3238 1066 3238 
L 2416 3238 
Q 2675 3238 2886 3111 
Q 3097 2984 3223 2770 
Q 3350 2556 3350 2297 
L 3350 2206 
Q 3350 1950 3223 1739 
Q 3097 1528 2886 1401 
Q 2675 1275 2416 1275 
L 1409 1275 
L 1409 1931 
L 2422 1931 
Q 2534 1931 2614 2012 
Q 2694 2094 2694 2209 
L 2694 2297 
Q 2694 2416 2614 2497 
Q 2534 2578 2422 2578 
L 1034 2578 
L 1034 916 
Q 1034 809 1106 734 
Q 1178 659 1281 659 
L 3122 659 
L 3122 0 
L 1281 0 
Q 1031 0 825 123 
Q 619 247 497 455 
Q 375 663 375 913 
L 375 2569 
z
" transform="scale(0.015625)"/>
      <path id="Anta-Regular-79" d="M 888 3238 
L 1728 994 
L 2588 3238 
L 3316 3238 
L 1597 -1219 
L 875 -1219 
L 1378 106 
L 188 3238 
L 888 3238 
z
" transform="scale(0.015625)"/>
     </defs>
     <use xlink:href="#Anta-Regular-6c"/>
     <use xlink:href="#Anta-Regular-69" transform="translate(22.021484 0)"/>
     <use xlink:href="#Anta-Regular-67" transform="translate(44.091797 0)"/>
     <use xlink:href="#Anta-Regular-68" transform="translate(101.806641 0)"/>
     <use xlink:href="#Anta-Regular-74" transform="translate(158.789062 0)"/>
     <use xlink:href="#Anta-Regular-65" transform="translate(198.095703 0)"/>
     <use xlink:href="#Anta-Regular-79" transform="translate(255.810547 0)"/>
     <use xlink:href="#Anta-Regular-65" transform="translate(310.546875 0)"/>
    </g>
   </g>
   <g id="text_3">
    <!-- eye -->
    <g transform="translate(243.04 47.798125) scale(0.62 -0.62)">
     <use xlink:href="#Anta-Regular-65"/>
     <use xlink:href="#Anta-Regular-79" transform="translate(57.714844 0)"/>
     <use xlink:href="#Anta-Regular-65" transform="translate(112.451172 0)"/>
    </g>
   </g>
   <g id="line2d_3">
    <path d="M 37.696 32.056704 
L 38.136889 31.954546 
L 38.577778 31.842402 
L 39.018667 31.737197 
L 39.459556 31.661411 
L 39.900444 31.640877 
L 40.341333 31.701483 
L 40.782222 31.865096 
L 41.223111 32.145189 
L 41.664 32.54277 
L 42.104889 33.043265 
L 42.545778 33.614932 
L 42.986667 34.209302 
L 43.427556 34.763878 
L 43.868444 35.207105 
L 44.309333 35.465292 
L 44.750222 35.470912 
L 45.191111 35.171433 
L 45.632 34.537698 
L 46.072889 33.570802 
L 46.513778 32.306479 
L 46.954667 30.816212 
L 47.395556 29.204571 
L 47.836444 27.602664 
L 48.277333 26.158029 
L 48.718222 25.021708 
L 49.159111 24.333622 
L 49.6 24.207644 
L 50.040889 24.717913 
L 50.481778 25.887916 
L 50.922667 27.683664 
L 51.363556 30.011985 
L 51.804444 32.724441 
L 52.245333 35.626882 
L 52.686222 38.49402 
L 53.127111 41.087891 
L 53.568 43.178614 
L 54.008889 44.565549 
L 54.449778 45.09681 
L 54.890667 44.685193 
L 55.331556 43.318849 
L 55.772444 41.065455 
L 56.213333 38.069298 
L 56.654222 34.541284 
L 57.095111 30.742632 
L 57.536 26.963607 
L 57.976889 23.499171 
L 58.417778 20.623756 
L 58.858667 18.567475 
L 59.299556 17.496003 
L 59.740444 17.496003 
L 60.181333 18.567475 
L 60.622222 20.623756 
L 61.063111 23.499171 
L 61.504 26.963607 
L 61.944889 30.742632 
L 62.385778 34.541284 
L 62.826667 38.069298 
L 63.267556 41.065455 
L 63.708444 43.318849 
L 64.149333 44.685193 
L 64.590222 45.09681 
L 65.031111 44.565549 
L 65.472 43.178614 
L 65.912889 41.087891 
L 66.353778 38.49402 
L 66.794667 35.626882 
L 67.235556 32.724441 
L 67.676444 30.011985 
L 68.117333 27.683664 
L 68.558222 25.887916 
L 68.999111 24.717913 
L 69.44 24.207644 
L 69.880889 24.333622 
L 70.321778 25.021708 
L 70.762667 26.158029 
L 71.203556 27.602664 
L 71.644444 29.204571 
L 72.085333 30.816212 
L 72.526222 32.306479 
L 72.967111 33.570802 
L 73.408 34.537698 
L 73.848889 35.171433 
L 74.289778 35.470912 
L 74.730667 35.465292 
L 75.171556 35.207105 
L 75.612444 34.763878 
L 76.053333 34.209302 
L 76.494222 33.614932 
L 76.935111 33.043265 
L 77.376 32.54277 
L 77.816889 32.145189 
L 78.257778 31.865096 
L 78.698667 31.701483 
L 79.139556 31.640877 
L 79.580444 31.661411 
L 80.021333 31.737197 
L 80.462222 31.842402 
L 80.903111 31.954546 
L 81.344 32.056704 
" clip-path="url(#p7cf3aa464d)" style="fill: none; stroke: #b22222; stroke-width: 2.5; stroke-linecap: square"/>
   </g>
  </g>
 </g>
 <defs>
  <clipPath id="p7cf3aa464d">
   <rect x="0" y="0" width="357.12" height="64.48"/>
  </clipPath>
 </defs>
</svg>
